Coordinates
version=1
nRows=12
nColumns=34
inDegrees=yes

Units are S.I. units (second, meters, Newtons, ...)
If the header above contains a line with 'inDegrees', this indicates whether rotational values are in degrees (yes) or radians (no).

endheader
time	pelvis_tilt	pelvis_list	pelvis_rotation	pelvis_tx	pelvis_ty	pelvis_tz	hip_flexion_r	hip_adduction_r	hip_rotation_r	knee_angle_r	ankle_angle_r	subtalar_angle_r	mtp_angle_r	hip_flexion_l	hip_adduction_l	hip_rotation_l	knee_angle_l	ankle_angle_l	subtalar_angle_l	mtp_angle_l	lumbar_extension	lumbar_bending	lumbar_rotation	arm_flex_r	arm_add_r	arm_rot_r	elbow_flex_r	pro_sup_r	arm_flex_l	arm_add_l	arm_rot_l	elbow_flex_l	pro_sup_l
      2.12000000	      2.05177006	     -1.06040924	     -0.22194129	      0.33380923	      0.92446432	     -0.19496581	     -9.34829853	      6.68951560	     -0.91087560	     -5.28108098	      9.42875378	     -1.49803379	      1.87497629	     22.73232762	     -0.47239013	     -1.26733576	    -36.72343591	      0.61624608	     -9.85745771	     20.38561280	     -7.54154311	      3.39439759	      3.10558077	      3.88191834	    -21.76053153	     13.77338226	     30.44508013	     90.00000000	     -3.91731345	    -13.62752019	     24.36915058	     13.11937462	     90.00000000
      2.13000000	      2.35403054	     -1.04220776	     -0.42661089	      0.34604087	      0.92333042	     -0.19404360	    -10.94612283	      6.66053512	     -0.99708106	     -4.49527255	      9.74254732	     -0.85187318	      1.85339989	     22.57968551	     -0.49179162	     -1.76408244	    -32.96093207	      0.23093225	    -11.18960211	     19.54590623	     -7.98549291	      3.30338078	      3.49947801	      4.51354343	    -22.13104074	     14.14883316	     31.26824163	     90.00000000	     -4.40083207	    -13.66199208	     23.93805246	     13.05397810	     90.00000000
      2.14000000	      2.56846550	     -1.05720642	     -0.56476955	      0.35838427	      0.92180557	     -0.19319731	    -12.34949396	      6.70201983	     -1.18221621	     -3.92372761	     10.14225461	     -0.38691247	      1.87096560	     22.49517048	     -0.51122314	     -2.24996826	    -29.16827376	     -0.01785245	    -12.29721890	     18.74887491	     -8.31824543	      3.25375886	      3.82632915	      5.08439938	    -22.45256466	     14.38796510	     32.09777100	     90.00000000	     -4.85918122	    -13.61517766	     23.27357702	     12.93740539	     90.00000000
      2.15000000	      2.80871362	     -1.17113729	     -0.71502269	      0.37069175	      0.92025235	     -0.19245312	    -13.69684590	      6.82454534	     -1.41776469	     -3.49740730	     10.49057803	      0.14176073	      1.75968336	     22.34270543	     -0.61662695	     -2.73142852	    -25.37849313	      0.07621940	    -12.89943374	     17.78143874	     -8.70304830	      3.33842270	      4.10936877	      5.70920149	    -22.75447263	     14.49935022	     32.85990014	     90.00000000	     -5.32200949	    -13.54714863	     22.34789967	     12.85642338	     90.00000000
      2.16000000	      2.94451525	     -1.25730562	     -0.82666574	      0.38331926	      0.91832833	     -0.19176556	    -14.96303743	      6.93169724	     -1.61002283	     -3.06423023	     10.87219032	      0.55504880	      1.72218525	     22.28159911	     -0.68600227	     -3.28711043	    -21.71025507	      0.45492837	    -12.68918134	     16.91506458	     -8.93152687	      3.37116217	      4.34658150	      6.24838155	    -23.05363342	     14.74896497	     33.57705851	     90.00000000	     -5.87100339	    -13.51722182	     21.84062241	     12.86477782	     90.00000000
      2.17000000	      3.08122523	     -1.40974276	     -0.87374956	      0.39600774	      0.91632348	     -0.19130298	    -16.13994350	      7.10017030	     -2.02471169	     -2.79586659	     11.26928015	      1.30909471	      1.74823582	     22.17676162	     -0.75060401	     -3.72903619	    -18.19696388	      1.36447202	    -11.68566339	     12.85536414	     -9.14766888	      3.50388483	      4.45476930	      6.81878700	    -23.31802771	     14.91374070	     34.15214752	     90.00000000	     -6.50768055	    -13.40090345	     20.06801212	     13.09037690	     90.00000000
      2.18000000	      2.88363644	     -1.67415094	     -0.82397625	      0.40860823	      0.91372303	     -0.19119056	    -16.96075900	      7.40490264	     -2.02947570	     -2.54619240	     11.52633502	      1.40517542	      1.81212640	     22.43709282	     -0.84595174	     -3.80133229	    -14.81389802	      1.50882190	    -10.81775281	     12.83413041	     -8.98688224	      3.79889194	      4.53661318	      7.26611344	    -23.57970574	     14.84555328	     34.66548248	     90.00000000	     -6.95190804	    -13.27936552	     20.02108922	     12.92867586	     90.00000000
      2.19000000	      3.15779583	     -1.78051680	     -1.06391736	      0.42127207	      0.91185639	     -0.19046435	    -18.22897260	      7.43602829	     -1.95105858	     -2.43427360	     11.80686434	      1.73088237	      1.95079362	     22.08627433	     -0.92920159	     -4.60246740	    -11.61229132	      1.70075775	     -8.79088284	     12.84577673	     -9.39699343	      3.84183452	      4.94823707	      7.61301598	    -23.87747817	     14.92131517	     35.45494089	     90.00000000	     -7.11157521	    -13.09871078	     19.74279488	     12.34895615	     90.00000000
      2.20000000	      3.22774353	     -1.99658800	     -1.13824899	      0.43409265	      0.90956789	     -0.19025971	    -19.24150342	      7.58934139	     -1.91482064	     -2.41858191	     12.04164045	      2.14044855	      2.13120685	     22.05035651	     -1.01635312	     -5.05334972	     -8.94517270	      2.19009839	     -6.44649012	     12.89746708	     -9.56414426	      4.06217798	      5.14559910	      7.93039237	    -24.15246189	     14.72929335	     36.11941107	     90.00000000	     -7.46237084	    -12.93810485	     19.46727830	     12.17082000	     90.00000000
      2.21000000	      3.09751983	     -2.22620394	     -1.18403415	      0.44696477	      0.90711220	     -0.19020180	    -19.95929496	      7.75137004	     -1.82343992	     -2.55127354	     12.26237395	      2.49087130	      2.37548307	     22.25261064	     -1.07415594	     -5.49708143	     -6.69656569	      2.38433987	     -4.19019858	     13.01188235	     -9.48405962	      4.31342457	      5.30831463	      8.16843172	    -24.39429152	     14.58729984	     36.71415739	     90.00000000	     -7.77063159	    -12.76987588	     19.26713328	     11.89469857	     90.00000000
      2.22000000	      2.83909286	     -2.50883410	     -1.19566358	      0.45989231	      0.90452690	     -0.19035314	    -20.44074551	      7.96889212	     -1.69404497	     -2.86639557	     12.40618730	      2.64738183	      2.47742820	     22.54713581	     -1.11016398	     -5.38445135	     -4.80749972	      2.29981611	     -3.21470855	     13.04661207	     -9.23776349	      4.62863285	      5.39518614	      8.41578331	    -24.62509542	     14.43971909	     37.04906121	     90.00000000	     -8.11934343	    -12.56874247	     19.10920370	     11.79513823	     90.00000000
      2.23000000	      2.84199054	     -2.69536328	     -1.29561453	      0.47303540	      0.90241401	     -0.19039034	    -21.04962495	      8.01370682	     -1.74290506	     -3.47822186	     12.61575993	      3.31939863	      3.00195623	     22.77842455	     -1.16599968	     -6.53924444	     -3.87380360	      2.27289992	      0.56885575	     13.39389048	     -9.30318633	      4.82814680	      5.65725069	      8.42059163	    -24.86180725	     14.19008489	     37.81854801	     90.00000000	     -8.13990445	    -12.26666668	     18.69238308	     10.98851070	     90.00000000
